<?xml version="1.0" standalone="no"?>
<!DOCTYPE svg PUBLIC "-//W3C//DTD SVG 20010904//EN"
 "http://www.w3.org/TR/2001/REC-SVG-20010904/DTD/svg10.dtd">
<svg version="1.0" xmlns="http://www.w3.org/2000/svg"
 width="400.000000pt" height="400.000000pt" viewBox="0 0 400.000000 400.000000"
 preserveAspectRatio="xMidYMid meet">

<g transform="translate(0.000000,400.000000) scale(0.100000,-0.100000)"
fill="#000000" stroke="none">
<path d="M1721 3983 c-568 -87 -1061 -400 -1376 -873 -164 -246 -294 -593
-321 -855 -4 -36 -11 -68 -15 -71 -12 -7 -12 -371 0 -378 4 -3 11 -36 15 -73
18 -178 91 -422 184 -617 96 -201 205 -357 362 -520 178 -184 339 -302 565
-411 164 -80 298 -126 461 -160 126 -26 134 -26 444 -23 l315 4 135 36 c670
177 1187 657 1405 1303 120 356 139 729 56 1100 -109 488 -416 936 -835 1217
-254 170 -542 280 -845 322 -139 20 -420 19 -550 -1z m-103 -445 c14 -14 16
-48 3 -48 -5 0 -14 7 -21 15 -11 13 -40 21 -40 11 0 -24 44 -99 60 -103 31 -8
19 -25 -29 -39 -23 -7 -51 -20 -61 -29 -24 -21 -33 1 -13 31 9 15 12 35 7 63
-7 44 -28 55 -38 19 -7 -27 -21 -16 -31 24 -7 26 -4 28 39 39 26 6 49 15 52
20 8 13 58 11 72 -3z m863 1 c49 -17 53 -23 34 -59 -18 -34 -31 -31 -37 10 -2
19 -9 25 -28 25 -19 0 -27 -8 -38 -37 -15 -39 -9 -88 10 -88 7 0 24 12 40 27
30 29 44 26 33 -6 -8 -26 -60 -54 -85 -46 -10 3 -30 15 -44 26 -37 29 -37 92
1 131 29 31 59 35 114 17z m-1069 -89 c-3 -36 28 -100 48 -100 24 0 6 -18 -40
-40 -54 -25 -68 -23 -51 9 9 16 7 29 -8 60 -21 41 -35 51 -63 43 -27 -7 -30
-48 -6 -98 16 -34 19 -51 11 -63 -15 -24 -73 -61 -96 -61 -23 0 -57 27 -57 46
0 7 -11 21 -25 32 -14 11 -25 24 -25 30 0 9 60 52 72 52 3 0 8 -17 12 -38 7
-47 43 -84 74 -75 14 3 22 13 22 28 0 24 -26 81 -41 90 -18 12 -7 31 34 56 23
15 52 30 64 33 11 4 27 14 34 22 22 27 44 12 41 -26z m564 15 c-4 -16 -1 -34
7 -45 13 -19 15 -18 27 20 15 45 30 53 30 16 0 -14 5 -28 10 -31 6 -3 10 3 10
14 0 26 13 33 45 25 26 -6 26 -19 -1 -19 -7 0 -14 -4 -13 -10 0 -5 7 -9 15 -7
8 2 14 -4 14 -13 0 -8 -4 -15 -10 -15 -5 0 -10 -9 -10 -20 0 -23 18 -27 26 -5
8 20 24 19 40 -2 10 -13 13 -14 14 -4 0 8 -8 20 -17 27 -10 7 -15 15 -12 19 4
3 19 -5 33 -19 15 -13 23 -27 18 -30 -12 -7 -22 -56 -12 -56 4 0 10 7 14 15 7
18 25 19 49 1 10 -8 15 -20 11 -30 -5 -13 -9 -14 -20 -5 -11 9 -14 8 -14 -4 0
-9 -13 -26 -30 -39 -16 -12 -30 -25 -30 -30 0 -9 36 9 58 30 16 15 48 16 57 2
4 -7 13 -7 24 0 31 16 45 -10 19 -37 -16 -17 -18 -23 -7 -23 8 0 20 5 26 11 8
8 13 6 17 -9 7 -21 36 -39 36 -22 0 6 7 10 16 10 14 0 14 -3 4 -15 -7 -8 -17
-15 -22 -15 -5 0 -21 -9 -35 -20 l-26 -20 32 0 c17 0 31 5 31 11 0 6 6 9 13 6
6 -2 11 -10 9 -17 -1 -7 2 -18 8 -25 8 -10 7 -23 -4 -50 -15 -34 -15 -36 3
-30 21 6 71 -13 71 -27 0 -5 -7 -16 -15 -24 -13 -14 -15 -14 -15 0 0 9 -7 16
-15 16 -17 0 -20 -16 -5 -25 16 -10 0 -27 -21 -22 -10 3 -22 1 -25 -5 -4 -6
12 -9 42 -7 38 2 48 -1 46 -12 -6 -26 -33 -40 -50 -26 -12 9 -16 9 -20 -1 -3
-9 -7 -10 -17 -2 -10 8 -15 8 -20 0 -13 -21 9 -28 63 -21 43 6 52 5 47 -7 -3
-7 -5 -17 -5 -22 0 -17 -34 -19 -66 -4 -35 17 -52 14 -39 -6 4 -6 13 -9 21 -6
8 3 14 -1 14 -9 0 -8 7 -15 16 -15 8 0 12 -5 9 -10 -4 -6 -1 -17 5 -25 17 -20
-11 -31 -39 -15 -31 16 -26 7 22 -40 36 -37 39 -42 17 -35 -14 4 -31 12 -38
18 -7 5 -15 7 -19 4 -8 -9 17 -37 33 -37 16 0 19 -29 4 -31 -5 -1 -14 -3 -20
-4 -5 -1 -14 -3 -20 -4 -5 0 -7 -8 -4 -16 10 -26 -11 -17 -46 20 -19 19 -38
35 -42 35 -5 0 3 -11 17 -25 27 -28 37 -67 11 -46 -20 17 -30 -4 -11 -22 11
-11 12 -22 6 -39 -6 -13 -10 -21 -11 -18 -1 3 -3 13 -5 22 -2 9 -10 26 -18 38
-15 21 -15 21 -28 -9 -16 -35 -49 -43 -49 -11 0 15 -7 20 -26 20 -18 0 -28 6
-31 20 -7 26 -29 20 -25 -7 1 -11 -4 -25 -11 -31 -21 -17 -77 13 -78 41 0 12
-3 16 -6 10 -7 -18 -30 -16 -41 3 -7 12 -11 4 -15 -32 -3 -27 -3 -52 0 -56 6
-11 79 -10 127 1 23 6 48 6 63 0 14 -5 42 -10 63 -11 45 -1 68 -12 51 -22 -6
-4 -11 -16 -11 -27 0 -10 -7 -19 -15 -19 -16 0 -81 -63 -117 -113 -11 -15 -24
-25 -29 -22 -13 9 -11 43 4 48 9 4 9 6 -1 6 -15 1 -21 -13 -25 -58 -2 -33 -26
-57 -28 -29 -1 7 -4 0 -8 -17 -5 -21 -12 -29 -24 -27 -9 1 -31 -5 -48 -13 -22
-12 -34 -14 -42 -6 -16 16 -27 14 -27 -5 0 -13 9 -15 45 -12 25 2 45 1 45 -2
0 -9 -62 -63 -88 -78 -13 -7 -27 -10 -32 -7 -6 4 -29 3 -53 0 -44 -7 -44 -6
-38 -68 2 -16 21 5 21 23 0 19 19 30 52 30 25 0 21 -29 -7 -44 -11 -6 -25 -18
-31 -26 -9 -11 -35 -15 -95 -16 -85 -1 -98 -8 -84 -42 6 -15 8 -14 16 6 4 12
13 22 19 22 11 0 14 -39 4 -64 -8 -20 -44 -21 -44 -1 0 8 -4 15 -10 15 -5 0
-7 -7 -4 -15 4 -10 0 -15 -14 -15 -35 0 -45 64 -12 75 23 7 27 25 6 25 -19 0
-29 29 -12 36 7 3 24 6 37 8 13 1 38 10 56 19 18 9 41 17 53 17 11 0 20 4 20
9 0 13 -30 35 -37 27 -4 -4 -13 4 -20 16 -10 18 -12 19 -13 6 0 -26 -46 -54
-64 -38 -11 8 -20 8 -35 1 -19 -11 -51 -6 -51 8 1 17 42 128 55 148 8 12 15
30 15 39 0 10 14 49 32 87 25 55 30 72 20 87 -6 10 -8 21 -5 24 4 3 43 6 89 6
78 0 82 1 86 24 4 17 1 23 -9 19 -14 -5 -18 9 -6 21 4 3 8 12 9 19 1 7 6 21
10 32 7 18 6 19 -10 6 -9 -8 -24 -28 -32 -44 -10 -18 -21 -27 -30 -23 -8 3
-14 2 -14 -2 0 -4 -5 -14 -10 -22 -8 -12 -14 -10 -40 15 -16 16 -30 24 -30 18
0 -6 -9 -13 -20 -16 -24 -6 -26 5 -5 23 21 17 20 54 -1 46 -12 -5 -14 -1 -9
17 6 17 -5 10 -42 -25 -53 -52 -75 -62 -49 -23 14 22 15 25 1 25 -8 0 -15 4
-15 9 0 14 28 33 39 27 5 -3 7 3 4 15 -3 11 -16 25 -29 29 -16 6 -22 15 -18
25 4 10 0 15 -13 15 -32 0 -35 12 -11 38 l23 24 -27 -7 c-22 -6 -28 -4 -28 9
0 21 29 35 60 30 18 -4 29 1 38 16 7 12 11 25 7 28 -3 4 -9 1 -13 -5 -6 -10
-17 -10 -45 -1 -34 11 -37 14 -38 52 -2 34 -3 36 -6 11 -5 -37 -25 -54 -58
-47 -20 3 -23 7 -15 23 7 11 16 16 27 12 13 -5 15 -2 9 22 -6 22 -4 26 8 22
17 -7 36 20 29 41 -3 7 2 21 10 30 21 25 30 59 16 67 -8 6 -8 10 2 16 7 4 19
4 25 -2 8 -6 13 -3 17 12 3 12 10 18 17 14 6 -4 17 -2 24 4 9 8 18 7 32 -4 30
-22 51 -18 23 5 -36 30 -43 36 -61 59 -24 29 -23 40 7 51 14 5 24 15 23 22 -4
16 51 12 118 -7 12 -4 25 -2 28 4 4 6 0 11 -11 11 -10 1 -34 14 -52 30 -25 21
-37 26 -42 18 -5 -7 -11 -10 -14 -6 -10 9 39 55 53 51 10 -4 10 -8 1 -19 -9
-11 -8 -14 4 -14 8 0 17 6 20 13 3 9 7 9 19 0 12 -11 14 -8 10 17 -5 34 13 41
34 13 7 -10 16 -15 20 -11 4 4 1 15 -6 23 -11 14 -10 19 8 37 12 12 25 19 29
15 3 -4 1 -13 -5 -19 -16 -16 -15 -29 1 -27 6 1 20 -1 30 -6 22 -9 35 1 19 17
-20 20 -13 31 14 24 21 -6 32 -1 58 28 38 42 40 43 32 11z m664 -1 c0 -7 -7
-17 -15 -21 -25 -14 -54 -85 -44 -106 17 -30 0 -39 -31 -17 -40 29 -45 53 -21
104 16 32 30 46 54 53 37 11 57 7 57 -13z m-713 10 c-3 -3 -12 -4 -19 -1 -8 3
-5 6 6 6 11 1 17 -2 13 -5z m838 -59 c66 -43 72 -51 49 -76 -12 -13 -21 -16
-29 -9 -13 11 -45 -11 -45 -31 0 -12 4 -11 35 3 38 17 39 5 2 -36 -38 -42 -45
-43 -79 -17 -13 11 -37 23 -51 26 -38 10 -43 23 -19 48 30 32 53 90 41 108
-26 42 16 35 96 -16z m160 -108 c20 -15 20 -16 -2 -39 -28 -30 -30 -58 -4 -58
26 0 44 25 36 50 -6 20 -5 21 15 10 35 -18 46 -55 26 -85 -19 -29 -66 -34 -86
-10 -7 8 -19 15 -26 15 -8 0 -14 -7 -14 -15 0 -8 7 -15 15 -15 8 0 15 -7 15
-15 0 -25 -26 -17 -79 25 -51 40 -58 60 -22 60 21 0 47 34 57 74 4 17 2 26 -6
26 -6 0 -8 4 -5 10 6 10 41 -4 80 -33z m-1864 -64 c13 -35 1 -43 -39 -22 l-33
17 23 16 c31 22 37 20 49 -11z m54 -113 c-5 -17 -12 -20 -28 -15 -46 14 -107
18 -107 7 0 -14 33 -32 59 -32 28 0 26 -7 -6 -34 -41 -35 -47 -34 -49 4 -2 41
-45 84 -75 75 -13 -4 -19 -2 -19 8 0 28 30 40 94 39 34 0 69 4 77 8 22 14 63
-31 54 -60z m435 60 c13 -8 13 -11 -1 -25 -15 -15 -17 -15 -21 9 -6 28 -1 31
22 16z m-50 -47 c-1 -24 -2 -26 -11 -10 -5 9 -7 22 -4 27 10 17 15 11 15 -17z
m-632 -68 c2 -18 18 -42 44 -64 41 -38 44 -60 8 -77 -21 -10 -74 -79 -114
-147 -16 -26 -30 -47 -33 -47 -3 0 -13 10 -23 23 -18 21 -19 21 -26 3 -7 -17
-8 -17 -25 5 -14 19 -20 21 -32 11 -20 -17 -47 9 -40 37 4 17 12 19 84 14 55
-4 83 -2 94 7 18 15 20 66 3 74 -7 4 1 4 17 2 35 -5 74 17 53 30 -24 15 -78
14 -78 -2 0 -16 -26 -19 -35 -3 -5 7 -14 5 -30 -5 -32 -21 -37 -9 -12 29 19
30 28 34 84 40 42 4 63 11 63 20 0 17 -27 27 -51 20 -26 -9 -24 13 3 42 27 29
42 25 46 -12z m1620 -37 c-7 -19 -38 -22 -38 -4 0 10 9 16 21 16 12 0 19 -5
17 -12z m776 -54 c20 -20 36 -38 36 -40 0 -9 -37 -3 -48 8 -9 9 -21 5 -54 -19
-54 -39 -56 -48 -17 -62 29 -10 31 -13 27 -56 -2 -30 1 -45 9 -45 6 0 18 -3
27 -6 21 -8 21 13 0 54 -23 48 -15 94 18 106 24 8 32 6 57 -19 29 -27 51 -66
66 -113 5 -19 2 -23 -24 -28 -17 -4 -31 -12 -31 -18 0 -6 -13 -19 -29 -29 -24
-14 -34 -15 -55 -6 -14 7 -26 15 -26 19 0 3 -16 25 -35 47 -19 23 -35 49 -35
58 0 9 -11 26 -25 37 -14 11 -25 23 -25 28 0 12 103 118 117 119 6 1 27 -15
47 -35z m-584 -4 c0 -5 -5 -10 -11 -10 -5 0 -7 5 -4 10 3 6 8 10 11 10 2 0 4
-4 4 -10z m-80 -20 c0 -5 -7 -10 -16 -10 -8 0 -12 5 -9 10 3 6 10 10 16 10 5
0 9 -4 9 -10z m-1112 -131 c-26 -17 -40 -11 -28 12 9 16 14 18 26 8 12 -10 12
-14 2 -20z m1556 -23 c-7 -18 -32 -28 -47 -19 -9 5 26 27 50 33 1 0 0 -6 -3
-14z m452 0 c16 -17 19 -36 4 -36 -9 0 -30 31 -30 44 0 10 11 7 26 -8z m-2066
-31 c0 -8 -4 -15 -10 -15 -5 0 -10 7 -10 15 0 8 5 15 10 15 6 0 10 -7 10 -15z
m1555 -14 c3 -5 1 -12 -5 -16 -5 -3 -10 1 -10 9 0 18 6 21 15 7z m-2281 -27
c3 -8 15 -14 27 -14 18 0 20 -4 14 -27 -11 -46 -26 -44 -51 6 -13 25 -24 49
-24 53 0 12 28 -3 34 -18z m2260 -19 c4 -11 -1 -15 -19 -15 -25 0 -39 12 -28
24 12 11 41 6 47 -9z m63 -2 c2 -6 -13 -20 -33 -32 -20 -12 -34 -24 -31 -27 3
-4 19 3 35 15 37 26 49 26 54 4 3 -15 7 -14 27 9 13 15 28 25 33 22 4 -3 8 0
8 5 0 6 8 11 18 11 13 -1 11 -6 -12 -26 -33 -29 -30 -39 8 -24 25 9 26 8 16
-11 -7 -12 -20 -20 -33 -19 -53 5 -67 0 -67 -22 l0 -21 25 23 c21 20 25 21 31
7 3 -9 16 -16 27 -16 12 0 44 -5 70 -11 40 -10 48 -15 44 -31 -5 -20 7 -26 18
-9 3 6 19 10 35 10 16 0 36 7 45 16 9 9 19 14 22 10 4 -3 1 -12 -5 -18 -22
-22 -14 -38 14 -28 33 13 34 13 28 -5 -4 -8 -2 -15 4 -15 6 0 12 5 14 11 3 8
18 9 46 4 43 -7 58 -25 22 -25 -11 0 -20 -7 -20 -15 0 -26 17 -17 63 35 25 28
48 50 51 50 3 0 6 -11 6 -25 0 -15 -9 -31 -25 -41 -14 -9 -25 -23 -25 -30 0
-19 10 -18 27 4 10 12 16 14 19 5 3 -7 13 -13 22 -13 15 1 15 2 0 14 -10 7
-18 18 -18 23 0 20 35 41 55 33 17 -7 17 -9 3 -9 -21 -1 -24 -16 -5 -28 14 -9
37 -48 37 -63 0 -5 -11 -10 -25 -10 -34 0 -32 -18 2 -22 26 -3 29 -7 45 -93 9
-49 20 -110 23 -135 12 -80 13 -301 3 -372 -10 -65 -12 -68 -37 -68 -26 0 -51
-16 -51 -32 0 -4 9 -8 19 -8 48 0 71 -32 31 -43 -11 -3 -20 -12 -20 -21 0 -10
6 -13 16 -9 13 5 15 2 9 -18 -11 -35 -26 -51 -45 -46 -20 5 -50 -9 -50 -24 0
-6 10 -9 23 -7 19 3 22 -2 24 -32 1 -27 -3 -39 -20 -49 -19 -12 -23 -11 -35 8
-16 24 -37 29 -28 6 3 -9 0 -15 -9 -15 -8 0 -15 4 -15 10 0 5 -7 7 -15 4 -22
-9 -2 -38 35 -54 16 -7 30 -17 30 -22 0 -6 9 -8 21 -5 13 3 19 1 16 -6 -4 -12
-10 -14 -55 -16 -15 -1 -21 -5 -16 -13 4 -6 -1 -17 -11 -24 -17 -13 -17 -14 5
-22 15 -6 19 -11 12 -16 -7 -4 -12 -16 -12 -27 0 -10 -6 -19 -14 -19 -20 0
-27 13 -16 30 10 17 1 42 -13 33 -5 -3 -16 2 -24 13 -11 15 -17 16 -31 8 -28
-18 -24 27 11 106 6 14 10 32 9 40 -1 10 0 11 4 3 13 -28 26 -12 19 23 -5 31
-4 36 9 31 18 -7 23 18 6 28 -5 3 -10 16 -10 28 0 12 -7 35 -15 51 -28 53 -23
58 63 55 70 -2 77 0 77 17 0 16 -10 20 -60 25 -33 4 -70 3 -83 -2 -21 -8 -29
-4 -57 26 -39 41 -57 44 -78 13 -15 -22 -16 -22 -16 -3 -1 12 4 26 10 32 7 7
8 43 4 104 -3 52 -6 120 -7 152 -1 48 -4 57 -17 51 -25 -11 -150 -14 -156 -3
-12 18 -45 9 -81 -23 -35 -31 -37 -32 -29 -8 4 14 14 29 22 33 7 5 11 13 7 18
-4 6 -11 6 -20 -1 -21 -18 -40 -7 -21 12 9 9 22 18 29 21 23 8 1 18 -26 11
-16 -4 -26 -13 -26 -25 0 -12 -9 -21 -25 -25 -16 -4 -25 -13 -25 -26 0 -10 4
-17 9 -13 12 7 33 -30 23 -40 -4 -3 -7 -12 -7 -18 0 -7 -11 -11 -25 -9 -33 4
-63 -18 -51 -37 8 -12 12 -12 25 -2 12 10 16 10 16 2 0 -7 5 -9 10 -6 6 3 10
1 10 -4 0 -6 -11 -11 -24 -11 -13 0 -26 -6 -29 -12 -3 -8 -12 -3 -26 15 -24
29 -47 37 -37 12 3 -10 -1 -15 -13 -15 -11 0 -29 -11 -42 -25 -16 -16 -35 -25
-55 -25 -18 0 -38 -8 -49 -20 -11 -12 -25 -18 -36 -15 -23 8 -57 -9 -40 -19 6
-4 11 -18 11 -31 0 -29 8 -35 42 -28 33 6 44 31 22 48 -13 9 -14 14 -5 19 14
9 51 -20 48 -37 -1 -5 11 -13 26 -18 22 -6 27 -5 23 6 -5 15 18 11 41 -7 15
-12 33 -2 33 19 0 11 6 14 25 9 14 -4 25 -2 25 4 0 14 27 12 33 -2 3 -10 9
-10 26 0 18 10 21 10 22 -5 1 -10 1 -24 0 -30 -1 -7 3 -13 9 -13 5 0 10 9 10
20 0 11 5 20 10 20 6 0 10 -7 10 -16 0 -12 6 -15 26 -10 31 8 64 -16 64 -47 0
-18 -5 -19 -50 -14 -27 3 -52 2 -55 -3 -4 -7 -382 -7 -426 -1 -3 1 -4 12 -2
25 4 17 -7 45 -29 83 -19 32 -41 78 -48 103 -8 25 -17 50 -21 55 -18 24 -78
211 -73 225 3 8 32 38 64 65 32 28 59 55 59 60 1 6 18 21 38 35 20 14 43 31
50 38 22 22 34 9 19 -20 -12 -23 -12 -29 0 -39 8 -6 13 -17 12 -23 -4 -18 26
-56 44 -56 9 0 20 -5 23 -10 5 -8 11 -7 20 0 15 12 55 -2 55 -19 0 -14 -28
-33 -40 -26 -5 3 -10 0 -10 -7 0 -7 -3 -24 -7 -37 l-6 -25 29 27 c16 15 34 27
41 27 7 0 13 7 13 15 0 8 5 15 10 15 13 0 13 -6 -2 -29 -9 -14 -8 -22 3 -34
13 -13 17 -13 44 2 17 9 32 17 35 19 3 2 -3 9 -12 16 -17 12 -17 14 3 32 12
10 27 31 35 45 13 25 12 27 -6 22 -15 -4 -20 0 -20 16 0 16 6 21 28 21 23 0
32 7 45 36 14 29 15 39 5 51 -10 12 -9 18 7 29 18 13 17 14 -13 14 -36 0 -42
18 -16 44 8 9 11 16 5 16 -5 0 -13 -5 -16 -10 -7 -12 -37 2 -65 30 -17 17 -17
19 0 48 11 17 29 36 42 43 12 7 31 23 41 36 19 24 38 26 44 6z m-520 1 c-3 -3
-12 -4 -19 -1 -8 3 -5 6 6 6 11 1 17 -2 13 -5z m583 -4 c0 -5 -9 -10 -20 -10
-11 0 -20 5 -20 10 0 6 9 10 20 10 11 0 20 -4 20 -10z m470 -5 c0 -7 -11 -16
-25 -19 -14 -4 -25 -13 -25 -21 0 -8 -4 -15 -10 -15 -14 0 -12 37 3 43 9 4 9
7 0 14 -9 6 -1 9 22 10 22 1 35 -4 35 -12z m-2613 -22 c-15 -16 -17 -16 -17
-1 0 9 6 18 13 21 20 7 22 -2 4 -20z m513 17 c0 -5 -5 -10 -11 -10 -5 0 -7 5
-4 10 3 6 8 10 11 10 2 0 4 -4 4 -10z m-570 -10 c0 -5 -4 -10 -10 -10 -5 0
-10 5 -10 10 0 6 5 10 10 10 6 0 10 -4 10 -10z m2580 6 c0 -3 -4 -8 -10 -11
-5 -3 -10 -1 -10 4 0 6 5 11 10 11 6 0 10 -2 10 -4z m-556 -14 c9 -15 -121
-142 -146 -142 -17 0 -5 17 56 85 56 61 78 75 90 57z m368 -7 c0 -5 -5 -11
-11 -13 -6 -2 -11 4 -11 13 0 9 5 15 11 13 6 -2 11 -8 11 -13z m99 -17 c-9
-25 -31 -36 -31 -16 0 15 19 38 32 38 4 0 4 -10 -1 -22z m-2532 -19 c-9 -5
-15 -4 -18 2 -2 6 3 15 10 20 9 5 15 4 18 -2 2 -6 -3 -15 -10 -20z m141 22 c0
-14 -18 -23 -30 -16 -6 4 -8 11 -5 16 8 12 35 12 35 0z m470 -10 c0 -12 -20
-25 -27 -18 -7 7 6 27 18 27 5 0 9 -4 9 -9z m-560 -21 c-8 -16 -8 -20 4 -20 8
0 16 5 18 11 3 9 9 9 25 1 16 -9 24 -7 42 9 24 22 50 17 30 -7 -6 -8 -18 -14
-25 -14 -8 0 -14 -9 -14 -20 0 -11 -7 -23 -15 -26 -16 -6 -75 16 -75 28 0 5
-9 8 -20 8 -11 0 -20 6 -20 13 0 11 14 20 58 36 1 1 -2 -8 -8 -19z m180 -5 c0
-9 -7 -18 -15 -21 -11 -5 -12 -10 -2 -25 10 -18 8 -23 -16 -40 -30 -23 -28
-40 3 -32 11 3 20 0 20 -6 0 -17 -28 -25 -44 -12 -10 8 -16 9 -21 1 -11 -19 5
-29 37 -23 28 6 31 4 26 -15 -5 -17 -1 -23 17 -28 13 -3 31 -4 41 -2 24 4 30
28 7 28 -20 0 -47 35 -38 50 12 19 38 11 32 -10 -6 -25 11 -37 20 -14 5 14 8
15 17 3 6 -8 27 -22 46 -32 36 -17 34 -20 -12 -17 -20 1 -28 -3 -28 -15 0 -13
6 -16 24 -11 13 3 35 2 48 -3 22 -8 22 -9 -10 -15 -32 -8 -36 -29 -4 -24 14 2
17 -6 18 -41 1 -28 7 -47 18 -53 9 -5 13 -15 9 -26 -5 -14 -3 -15 7 -5 9 9 19
9 32 2 11 -6 26 -8 33 -5 9 3 12 0 8 -10 -3 -9 1 -14 14 -14 16 0 19 7 17 44
-2 53 -9 66 -35 66 -11 0 -22 7 -26 15 -7 20 26 57 45 50 8 -3 26 2 40 11 23
15 27 15 36 2 8 -13 13 -12 38 10 16 15 28 36 29 51 0 14 3 20 6 14 2 -7 12
-13 20 -13 10 0 13 -6 9 -16 -3 -9 -6 -19 -6 -24 0 -5 -9 -12 -20 -15 -12 -4
-20 -15 -20 -28 0 -19 -36 -106 -49 -117 -3 -3 -53 -99 -110 -213 -58 -115
-113 -213 -123 -218 -10 -6 -16 -14 -13 -20 4 -5 -5 -34 -19 -65 l-26 -56 -42
6 c-24 3 -93 6 -155 7 l-112 1 4 46 c2 26 4 53 4 60 1 17 26 15 41 -3 11 -14
15 -14 32 2 19 17 20 17 33 -1 8 -10 18 -15 24 -12 5 4 12 2 15 -3 8 -12 88
-4 97 10 3 6 16 8 27 5 11 -4 23 -3 26 3 10 16 -5 41 -26 41 -11 0 -22 8 -25
18 -4 16 -14 18 -66 16 -76 -2 -107 4 -107 22 0 17 -10 17 -46 4 -21 -8 -31
-7 -45 6 -24 22 -16 34 21 29 17 -2 28 0 25 6 -4 5 -22 9 -41 9 -21 0 -37 6
-40 14 -7 19 26 76 44 76 11 0 12 3 3 14 -10 12 -7 18 16 30 15 8 26 16 23 16
-3 1 -12 3 -20 5 -8 1 -26 6 -40 9 -21 5 -28 1 -42 -24 -17 -30 -42 -42 -32
-15 5 12 -2 15 -30 15 -32 0 -36 -3 -36 -24 0 -14 5 -28 10 -31 6 -3 10 -33
10 -65 0 -65 14 -115 30 -105 6 3 9 38 8 78 -2 53 1 77 12 90 33 39 42 47 51
47 16 0 10 -25 -16 -60 -15 -20 -21 -38 -16 -44 13 -18 24 -68 22 -106 -1 -19
5 -52 13 -72 21 -50 20 -67 -6 -127 -16 -34 -33 -56 -52 -65 -28 -13 -32 -13
-58 9 -15 13 -33 25 -40 27 -10 4 -8 13 6 40 20 37 19 65 -3 193 -7 38 -7 88
-2 135 5 41 6 78 4 83 -2 4 -15 7 -29 7 -13 0 -24 4 -24 9 0 5 -6 11 -13 14
-10 4 -13 -2 -9 -18 2 -15 9 -22 18 -18 9 3 14 -2 14 -17 0 -12 -3 -20 -7 -18
-5 2 -20 10 -36 18 -21 10 -30 11 -39 2 -9 -9 -7 -12 9 -12 15 0 22 -8 27 -30
4 -21 11 -30 26 -30 15 0 20 -7 20 -25 0 -22 -3 -24 -32 -18 -18 3 -34 10 -36
15 -6 15 -22 8 -22 -9 0 -14 9 -19 37 -21 21 -1 41 -6 46 -11 15 -15 3 -46
-16 -43 -9 2 -17 -2 -17 -8 0 -6 -12 -4 -30 5 -17 9 -30 11 -30 5 0 -5 5 -10
10 -10 17 0 11 -28 -7 -39 -17 -9 -17 -11 -2 -23 27 -22 28 -42 3 -84 l-24
-39 -70 0 c-49 0 -70 4 -70 13 0 6 5 12 10 12 6 0 10 8 10 17 0 12 -9 4 -25
-20 -19 -27 -32 -36 -50 -35 -30 3 -33 24 -5 33 11 3 23 17 26 30 7 28 34 40
70 31 14 -4 29 -4 35 0 16 9 -10 34 -37 34 -12 0 -26 5 -29 10 -8 12 -45 13
-45 1 0 -5 -9 -7 -20 -4 -12 3 -19 8 -16 11 3 2 -1 14 -9 26 -8 11 -15 33 -15
48 0 22 6 29 32 37 l33 9 -32 1 c-33 1 -47 24 -20 34 7 3 5 6 -5 6 -21 1 -24
31 -4 31 8 0 16 -4 18 -10 2 -6 21 -4 48 5 l45 15 -45 -1 c-73 -1 -80 0 -80
16 0 9 10 16 28 16 23 2 24 2 5 6 -42 8 -25 30 27 37 69 9 77 28 9 24 -59 -3
-80 15 -28 26 25 5 29 9 20 19 -6 8 -8 17 -4 21 4 4 15 -3 24 -16 15 -19 21
-20 41 -11 19 9 26 8 34 -4 5 -9 16 -12 27 -8 21 9 22 19 2 39 -21 21 -19 35
10 58 14 11 22 24 19 29 -3 6 -3 18 1 27 6 15 8 15 18 2 9 -11 22 -14 47 -9
19 4 27 7 17 8 -10 0 -25 8 -33 16 -18 17 -60 20 -69 5 -7 -12 -25 -4 -25 11
0 5 6 9 14 9 8 0 16 6 19 13 3 9 8 9 21 -2 15 -12 19 -11 37 7 11 12 24 22 29
22 11 0 1 -32 -14 -42 -7 -5 -6 -8 2 -8 8 0 25 9 40 20 25 20 25 20 46 1 12
-11 33 -24 48 -30 25 -9 30 -7 62 31 26 30 40 39 56 35 12 -3 23 1 29 11 8 14
13 14 36 4 14 -7 47 -11 73 -11 29 1 37 4 20 6 -20 3 -28 10 -28 24 0 22 -15
25 -27 7 -4 -7 -27 -13 -50 -13 -22 0 -39 3 -36 8 2 4 -2 7 -9 8 -7 0 1 5 18
10 20 6 34 17 37 31 6 21 7 21 27 3 19 -17 21 -17 38 -2 10 10 29 17 42 17 18
0 20 3 11 14 -10 12 -7 18 18 31 17 8 31 19 31 23 0 4 10 20 22 35 24 30 48
36 48 12z m2338 8 c-19 -5 -25 -43 -8 -43 6 0 22 11 36 25 23 23 34 30 34 22
0 -2 -15 -20 -33 -40 -32 -37 -33 -37 -50 -17 -21 24 -8 61 21 59 16 -1 16 -2
0 -6z m-2053 -13 c3 -5 3 -10 -2 -11 -53 -6 -93 -5 -93 1 0 5 15 11 33 13 17
2 37 5 44 5 6 1 15 -2 18 -8z m2215 -5 c0 -8 -4 -15 -10 -15 -5 0 -10 7 -10
15 0 8 5 15 10 15 6 0 10 -7 10 -15z m-2343 -1 c-3 -3 -12 -4 -19 -1 -8 3 -5
6 6 6 11 1 17 -2 13 -5z m2393 -15 c0 -5 -7 -9 -15 -9 -15 0 -20 12 -9 23 8 8
24 -1 24 -14z m-2480 -17 c0 -13 -12 -22 -22 -16 -10 6 -1 24 13 24 5 0 9 -4
9 -8z m-227 -30 c13 -14 14 -21 5 -30 -18 -18 -28 -15 -28 8 0 11 -5 20 -11
20 -5 0 -7 5 -4 10 9 15 20 12 38 -8z m317 4 c0 -3 -4 -8 -10 -11 -5 -3 -10
-1 -10 4 0 6 5 11 10 11 6 0 10 -2 10 -4z m1650 -26 c-8 -5 -17 -7 -19 -4 -3
3 1 9 9 14 8 5 17 7 19 4 3 -3 -1 -9 -9 -14z m-2105 -21 c0 -7 -8 -15 -17 -17
-18 -3 -25 18 -11 32 10 10 28 1 28 -15z m475 2 c0 -21 -39 -33 -64 -19 -23
13 -11 26 18 21 13 -3 27 0 30 6 10 16 16 13 16 -8z m1494 10 c3 -5 -4 -20
-15 -35 -14 -18 -30 -26 -52 -26 l-31 0 34 34 c36 34 55 42 64 27z m26 -36
c-7 -9 -15 -13 -17 -11 -7 7 7 26 19 26 6 0 6 -6 -2 -15z m130 5 c0 -5 7 -10
16 -10 15 0 15 -3 -1 -26 -10 -16 -13 -29 -7 -33 12 -8 7 -44 -7 -49 -6 -2
-11 -10 -11 -18 0 -8 -5 -14 -12 -14 -9 0 -9 -3 0 -12 17 -17 15 -35 -4 -42
-25 -9 -54 3 -54 22 0 14 2 14 9 3 5 -8 16 -11 26 -7 16 6 15 9 -9 31 -37 34
-34 49 9 42 19 -3 35 -2 35 3 0 5 3 15 6 24 4 11 1 16 -10 16 -19 0 -21 11 -4
28 10 10 10 15 -1 21 -7 5 -10 14 -7 20 9 14 26 14 26 1z m-116 -45 c-7 -16
-24 -21 -24 -6 0 8 7 13 27 20 1 1 0 -6 -3 -14z m196 7 c0 -5 -9 -17 -20 -27
-16 -15 -23 -16 -33 -6 -9 10 -8 15 7 27 22 16 46 19 46 6z m-2400 -16 c0 -11
-19 -15 -25 -6 -3 5 1 10 9 10 9 0 16 -2 16 -4z m170 -6 c0 -5 -2 -10 -4 -10
-3 0 -8 5 -11 10 -3 6 -1 10 4 10 6 0 11 -4 11 -10z m660 6 c0 -16 -14 -36
-26 -36 -14 0 -19 22 -7 33 7 8 33 10 33 3z m1375 -56 c-3 -5 -12 -10 -18 -10
-7 0 -6 4 3 10 19 12 23 12 15 0z m35 -40 c0 -5 -7 -10 -16 -10 -8 0 -12 5 -9
10 3 6 10 10 16 10 5 0 9 -4 9 -10z m-413 -193 c6 -4 9 -15 6 -23 -3 -8 0 -14
6 -14 6 0 11 -6 11 -13 0 -8 -17 -13 -50 -14 -41 -2 -52 1 -61 18 -15 29 -4
56 16 39 12 -10 15 -10 15 3 0 17 36 20 57 4z m-109 -49 c-6 -18 -28 -21 -28
-4 0 9 7 16 16 16 9 0 14 -5 12 -12z m875 -29 c39 -39 40 -41 34 -98 -5 -59 4
-91 27 -91 18 0 27 51 20 114 -6 51 6 96 25 96 5 0 12 -20 15 -45 3 -25 9 -66
12 -92 4 -26 1 -78 -6 -115 -14 -73 -5 -132 25 -162 26 -25 16 -61 -10 -37 -6
4 -22 11 -37 15 -22 5 -30 1 -45 -24 -21 -36 -24 -36 -51 -7 -48 51 -65 138
-37 187 11 19 13 46 8 108 -6 78 -5 83 15 89 18 4 15 9 -28 48 -27 24 -46 46
-43 49 15 14 39 3 76 -35z m-2448 -9 c3 -5 1 -10 -4 -10 -6 0 -11 5 -11 10 0
6 2 10 4 10 3 0 8 -4 11 -10z m1554 -7 c9 -17 10 -17 16 0 5 12 18 17 46 17
29 0 41 -5 46 -17 4 -10 10 -21 15 -24 5 -3 6 -13 3 -21 -7 -18 -107 -30 -142
-17 -26 10 -39 45 -23 64 16 20 27 19 39 -2z m804 -3 c-3 -11 -12 -20 -20 -20
-11 0 -11 4 -3 20 6 11 15 20 19 20 5 0 7 -9 4 -20z m-2473 -20 c0 -5 -2 -10
-4 -10 -3 0 -8 5 -11 10 -3 6 -1 10 4 10 6 0 11 -4 11 -10z m932 -7 c25 -23
23 -41 -7 -49 -14 -3 -25 -11 -25 -16 0 -6 9 -8 19 -5 16 4 21 -2 26 -24 4
-16 3 -34 -1 -40 -10 -17 17 -29 53 -23 46 9 55 -1 34 -39 -21 -38 -43 -41
-51 -7 -6 22 -8 20 -14 -17 -9 -50 -20 -60 -38 -36 -13 18 -60 24 -74 10 -4
-3 -1 -13 6 -22 7 -8 10 -25 7 -37 -4 -12 -2 -27 4 -34 6 -7 5 -15 -5 -23 -9
-7 -17 -8 -20 -2 -3 5 -23 7 -45 4 -21 -3 -41 -1 -44 3 -10 17 28 78 53 85 21
5 22 7 8 14 -24 10 -23 36 3 69 16 20 29 26 59 26 21 0 42 5 45 10 6 9 -2 11
-60 15 -15 1 -19 7 -17 25 1 14 9 30 18 37 9 6 14 20 13 30 -4 25 10 63 23 63
6 0 20 -7 30 -17z m1569 -21 c8 2 16 -1 17 -7 1 -5 -4 -10 -10 -10 -7 0 -17
-5 -23 -11 -5 -6 -20 -8 -33 -5 l-23 6 22 23 c15 17 24 20 29 12 4 -6 14 -10
21 -8z m-907 -1 c3 -5 -1 -12 -10 -15 -20 -8 -29 -1 -19 13 8 13 22 14 29 2z
m266 -1 c0 -5 -5 -10 -11 -10 -5 0 -7 5 -4 10 3 6 8 10 11 10 2 0 4 -4 4 -10z
m-717 -44 c7 -17 -11 -36 -35 -36 -21 0 -25 35 -5 43 22 9 35 7 40 -7z m397
-6 c-6 -4 -10 -18 -8 -31 l4 -24 12 28 c6 15 18 27 26 27 8 0 21 3 29 6 9 3
17 -3 22 -18 7 -23 8 -23 12 -1 4 22 45 39 64 27 6 -3 8 -16 5 -27 -3 -12 -1
-26 5 -33 7 -9 4 -14 -12 -19 -32 -10 -4 -25 49 -25 36 0 42 3 42 21 0 11 4
18 10 14 5 -3 7 -11 5 -18 -3 -7 -1 -25 4 -42 l8 -30 11 35 c9 30 11 32 17 14
5 -16 13 -20 42 -17 29 2 33 0 23 -12 -8 -10 -7 -15 5 -22 12 -7 14 -15 7 -33
-6 -15 -11 -19 -16 -12 -13 21 -26 2 -19 -28 5 -26 2 -30 -16 -30 -25 0 -26
-4 -4 -30 12 -13 30 -20 55 -20 48 0 72 -23 65 -65 -5 -30 -3 -33 32 -44 56
-16 85 -88 36 -88 -16 0 -25 5 -25 16 0 12 -4 11 -18 -7 -10 -13 -21 -20 -25
-15 -9 8 -87 12 -87 4 0 -4 -37 -6 -81 -6 -71 0 -83 3 -93 20 -12 22 -28 36
-34 30 -2 -2 0 -10 4 -17 5 -7 9 -22 9 -33 0 -21 8 -22 173 -24 50 -1 52 -2
53 -28 l2 -28 4 28 c3 18 9 27 17 24 7 -3 31 -2 54 3 54 9 95 2 88 -16 -3 -8
1 -14 9 -14 8 0 15 -9 15 -19 0 -11 5 -23 10 -26 23 -14 7 -21 -33 -15 -24 3
-56 3 -72 -2 -18 -4 -34 -3 -42 4 -9 7 -13 7 -13 -1 0 -7 -8 -11 -17 -10 -43
4 -62 -1 -57 -15 5 -14 67 -17 89 -5 6 4 46 3 90 0 78 -6 80 -7 89 -36 13 -40
13 -40 31 -25 12 10 18 10 30 0 22 -18 0 -42 -31 -34 -19 5 -24 2 -24 -14 0
-12 5 -24 10 -27 24 -15 -6 -25 -76 -25 -71 0 -75 1 -84 26 -8 21 -13 24 -25
14 -8 -6 -19 -9 -25 -5 -6 4 -19 -4 -29 -16 -16 -20 -22 -22 -44 -12 -17 8
-29 9 -32 3 -3 -6 -61 -10 -128 -11 -67 0 -165 -1 -217 -1 -52 -1 -160 0 -240
0 -80 1 -241 0 -357 -1 -166 -2 -213 0 -213 10 0 7 7 13 15 13 8 0 15 8 15 18
0 10 11 25 25 32 14 8 35 29 46 47 20 32 51 43 64 23 8 -13 16 -12 40 6 19 14
19 16 2 28 -11 9 -15 20 -11 31 7 17 8 17 21 -1 12 -17 13 -16 13 7 1 41 33
69 78 69 31 0 41 4 45 20 3 11 1 23 -4 26 -5 3 -9 0 -9 -5 0 -6 -7 -11 -15
-11 -14 0 -13 4 2 25 10 14 28 28 41 31 12 3 22 12 22 18 0 10 15 11 57 5 32
-4 62 -4 68 0 24 19 54 19 60 0 7 -23 25 -25 25 -4 0 10 10 15 29 15 31 0 49
15 28 23 -6 2 -51 3 -100 1 -56 -2 -87 0 -87 7 0 6 -9 8 -20 4 -11 -3 -20 -4
-20 -1 0 14 62 66 85 72 15 4 24 12 22 19 -3 6 -1 18 4 26 8 12 12 11 24 -5 8
-11 15 -27 15 -35 0 -9 11 -21 25 -28 20 -9 25 -8 25 3 0 8 7 17 15 20 23 9 7
24 -25 24 -24 0 -30 5 -35 32 -6 26 -3 35 15 50 12 10 34 18 49 18 20 0 23 2
11 10 -12 8 -8 17 28 52 32 33 45 40 51 29 6 -10 10 -10 16 -1 4 6 13 9 21 6
11 -4 14 3 12 29 -2 36 26 80 44 69 6 -4 5 -9 -2 -14z m264 11 c3 -4 19 -11
35 -14 33 -7 59 -43 43 -59 -16 -16 -56 -5 -68 19 -6 13 -14 20 -17 17 -3 -4
-17 -4 -31 0 -38 9 -23 37 26 45 4 0 9 -3 12 -8z m696 -42 c0 -18 -32 -38 -62
-39 -16 0 -28 5 -28 11 0 6 -9 8 -20 4 -22 -7 -26 5 -8 23 16 16 118 16 118 1z
m-1023 -31 c-3 -8 -6 -5 -6 6 -1 11 2 17 5 13 3 -3 4 -12 1 -19z m673 -12 c0
-3 -4 -8 -10 -11 -5 -3 -10 -1 -10 4 0 6 5 11 10 11 6 0 10 -2 10 -4z m-2133
-128 c-3 -8 -6 -5 -6 6 -1 11 2 17 5 13 3 -3 4 -12 1 -19z m2782 -5 c27 -34
52 -120 50 -169 -1 -22 -15 -70 -31 -109 -16 -38 -33 -80 -38 -92 -21 -50 -47
-5 -28 48 18 53 -22 120 -60 100 -18 -10 -19 -7 -17 37 2 46 2 47 36 48 92 1
90 0 83 47 -4 23 -15 56 -25 73 -17 29 -17 44 2 44 4 0 17 -12 28 -27z m-3129
7 c0 -5 -4 -10 -10 -10 -5 0 -10 5 -10 10 0 6 5 10 10 10 6 0 10 -4 10 -10z
m1260 -13 c0 -8 -8 -22 -19 -31 -17 -15 -19 -15 -25 -1 -10 26 -7 33 12 38 29
8 32 7 32 -6z m1033 -28 c-6 -6 -21 -8 -34 -4 l-22 7 24 14 c27 14 51 2 32
-17z m786 5 c20 -25 20 -44 1 -44 -9 0 -40 51 -40 65 0 13 20 3 39 -21z
m-2724 6 c3 -5 -6 -22 -21 -37 -32 -32 -45 -17 -20 22 17 26 31 31 41 15z
m-89 -43 c-5 -25 -2 -37 11 -48 29 -24 70 -42 81 -35 13 8 28 -13 35 -51 6
-31 4 -34 -34 -51 -45 -21 -72 -62 -63 -98 3 -13 2 -24 -3 -24 -14 0 -33 46
-33 78 0 16 -4 32 -10 38 -13 13 -29 133 -18 140 4 3 8 14 8 25 0 10 5 19 10
19 6 0 10 9 10 20 0 11 3 20 6 20 3 0 3 -15 0 -33z m2561 13 c3 -11 9 -18 13
-15 17 11 21 -17 6 -34 -14 -15 -30 -18 -89 -16 -80 2 -97 -2 -97 -19 0 -6 17
-12 37 -13 38 -2 70 -24 59 -41 -3 -6 -31 -9 -61 -7 -30 2 -57 -1 -60 -6 -4
-5 -24 -6 -46 -3 -33 6 -39 4 -39 -11 0 -12 6 -16 20 -12 25 6 71 -29 68 -51
-2 -11 5 -18 20 -20 24 -4 29 7 10 26 -9 9 -7 13 6 18 9 4 19 4 22 1 6 -5 -14
-77 -21 -77 -2 0 -10 -3 -18 -6 -9 -3 -16 3 -20 17 -5 19 -8 20 -22 9 -8 -7
-18 -10 -22 -7 -3 4 -15 -5 -26 -19 -19 -25 -19 -26 -1 -59 21 -39 14 -54 -19
-36 -63 35 -94 91 -53 99 14 3 17 0 12 -13 -4 -11 -2 -15 6 -12 7 2 13 10 13
18 1 24 16 40 33 35 24 -7 56 19 48 39 -5 13 -15 15 -53 9 -27 -4 -58 -14 -71
-22 -12 -8 -25 -12 -29 -8 -3 3 -1 6 5 6 7 0 12 4 12 10 0 5 -6 7 -14 4 -15
-6 -40 29 -29 40 4 3 -3 16 -14 29 -24 25 -61 123 -51 133 4 3 67 8 140 11 73
2 167 8 208 12 113 12 111 13 117 -9z m-487 6 c0 -3 -4 -8 -10 -11 -5 -3 -10
-1 -10 4 0 6 5 11 10 11 6 0 10 -2 10 -4z m-37 -16 c7 0 4 -5 -6 -11 -21 -12
-51 -4 -42 12 4 6 14 8 22 5 8 -3 20 -6 26 -6z m-1471 -70 c-9 -19 -28 -51
-42 -70 -15 -19 -29 -43 -33 -52 -8 -23 -23 -23 -39 0 -12 18 -15 18 -43 2
-26 -15 -30 -21 -27 -55 4 -36 3 -37 -13 -21 -10 10 -15 26 -13 41 4 18 0 25
-19 29 -12 4 -23 11 -23 16 0 6 -6 10 -14 10 -8 0 -16 4 -18 10 -1 5 -23 10
-48 11 -64 1 -80 8 -80 30 0 14 9 21 30 25 16 4 41 17 55 30 28 26 50 29 221
29 l121 0 -15 -35z m292 34 c24 -9 21 -54 -4 -54 -11 0 -20 -6 -20 -14 0 -24
-26 -38 -39 -22 -14 17 -7 52 17 79 17 19 22 20 46 11z m46 -4 c0 -5 -5 -10
-11 -10 -5 0 -7 5 -4 10 3 6 8 10 11 10 2 0 4 -4 4 -10z m-1007 -24 c15 -6 26
-18 25 -26 -1 -8 1 -20 5 -27 9 -15 -42 -39 -102 -47 -36 -6 -42 -4 -38 8 4 9
-5 23 -21 35 l-27 21 23 6 c18 5 20 9 11 20 -6 8 -15 11 -20 8 -10 -6 -12 9
-2 19 9 9 112 -3 146 -17z m2631 -32 c4 -9 4 -19 2 -21 -8 -8 -26 8 -26 23 0
19 16 18 24 -2z m33 -26 c-3 -8 -6 -5 -6 6 -1 11 2 17 5 13 3 -3 4 -12 1 -19z
m103 2 c0 -5 -5 -10 -11 -10 -5 0 -7 5 -4 10 3 6 8 10 11 10 2 0 4 -4 4 -10z
m-52 -31 c-16 -10 -33 5 -23 21 5 8 11 8 21 -1 12 -10 12 -14 2 -20z m-1818
-8 c0 -13 -29 -35 -37 -28 -7 8 15 37 28 37 5 0 9 -4 9 -9z m1670 -17 c0 -17
-22 -14 -28 4 -2 7 3 12 12 12 9 0 16 -7 16 -16z m45 7 c3 -5 1 -12 -5 -16 -5
-3 -10 1 -10 9 0 18 6 21 15 7z m-2735 -11 c0 -5 -4 -10 -10 -10 -5 0 -10 5
-10 10 0 6 5 10 10 10 6 0 10 -4 10 -10z m117 -16 c-9 -9 -28 6 -21 18 4 6 10
6 17 -1 6 -6 8 -13 4 -17z m421 -35 c17 -34 21 -54 17 -87 -8 -64 -31 -94 -68
-90 -17 2 -32 9 -35 17 -3 8 1 12 9 9 16 -6 49 9 49 21 0 5 -15 6 -32 2 -22
-5 -34 -13 -36 -26 -2 -18 -51 -55 -72 -55 -4 0 -5 39 -2 86 4 77 3 88 -17
115 -13 17 -20 33 -18 36 11 10 102 11 121 1 15 -8 21 -6 28 6 14 25 30 15 56
-35z m2302 42 c14 -4 44 -4 67 -1 24 4 45 5 48 2 2 -2 -2 -17 -10 -32 -18 -35
-22 -149 -5 -179 8 -16 9 -26 1 -34 -13 -13 -41 8 -41 32 0 20 -88 44 -107 29
-7 -6 -18 1 -32 21 -18 26 -21 38 -15 83 10 79 31 97 94 79z m173 -79 c-5 -37
-8 -40 -24 -31 -23 12 -23 19 -3 67 12 29 17 34 24 22 5 -9 6 -35 3 -58z
m-2923 48 c0 -5 -9 -10 -19 -10 -11 0 -23 5 -26 10 -4 6 5 10 19 10 14 0 26
-4 26 -10z m247 -57 c3 -7 -5 -17 -16 -23 -18 -9 -21 -8 -21 8 0 32 28 43 37
15z m2330 -5 c-3 -8 -6 -5 -6 6 -1 11 2 17 5 13 3 -3 4 -12 1 -19z m-2577 2
c0 -5 -7 -10 -16 -10 -8 0 -12 5 -9 10 3 6 10 10 16 10 5 0 9 -4 9 -10z m2540
-29 c0 -12 -20 -25 -27 -18 -7 7 6 27 18 27 5 0 9 -4 9 -9z m17 -63 c-3 -8 -6
-5 -6 6 -1 11 2 17 5 13 3 -3 4 -12 1 -19z m487 1 c-3 -5 -10 -7 -15 -3 -5 3
-7 10 -3 15 3 5 10 7 15 3 5 -3 7 -10 3 -15z m-127 -7 c13 -8 7 -52 -8 -52
-12 0 -39 42 -33 52 6 10 25 10 41 0z m-2677 -22 c0 -26 -17 -34 -36 -16 -18
19 -13 31 15 33 14 1 21 -4 21 -17z m2729 -44 c-15 -54 -59 -96 -101 -96 -27
-1 -30 -2 -15 -11 21 -12 21 -31 2 -87 -26 -74 -111 -174 -275 -324 -63 -58
-135 -116 -160 -130 -25 -14 -63 -37 -84 -52 -21 -14 -43 -26 -49 -26 -5 0
-39 -15 -76 -34 -181 -92 -385 -136 -633 -137 -207 0 -438 33 -438 62 0 6 -4
7 -10 4 -44 -27 -570 260 -570 311 0 8 -7 14 -15 14 -32 0 -26 29 15 72 42 43
42 43 36 13 -19 -82 -1 -93 68 -46 72 50 93 36 44 -28 -10 -13 -18 -33 -18
-44 0 -27 38 -67 64 -67 24 1 80 46 72 58 -2 4 3 13 13 19 15 10 17 8 14 -12
-3 -15 6 -34 28 -59 21 -24 29 -40 22 -47 -15 -15 -40 0 -47 27 -7 28 -18 30
-36 9 -18 -22 -7 -40 41 -62 58 -27 77 -20 106 43 26 58 24 89 -8 99 -10 4
-19 11 -19 16 0 5 -11 9 -24 9 -14 0 -33 11 -44 25 -11 14 -26 25 -33 25 -8 0
-31 16 -52 35 -21 19 -41 35 -44 35 -15 0 -73 52 -73 66 0 30 52 4 131 -65 42
-36 123 -91 135 -91 8 0 38 -13 67 -30 30 -16 60 -30 68 -30 9 0 33 -9 55 -19
131 -63 417 -90 648 -60 43 6 86 14 95 19 9 5 44 14 79 20 70 12 234 90 321
152 30 21 60 38 67 38 7 0 51 38 98 85 48 47 91 83 96 80 6 -3 8 0 5 7 -3 7 9
29 26 48 57 64 82 112 81 156 l0 41 39 -10 c28 -7 54 -25 89 -63 l49 -54 24
22 c13 13 37 31 55 40 20 10 34 27 37 45 13 56 14 58 30 42 12 -12 13 -22 4
-53z m-2786 9 c9 -19 29 -41 45 -49 16 -8 32 -22 35 -31 8 -19 -4 -19 -29 0
-10 8 -26 15 -35 15 -22 0 -49 42 -49 75 0 35 13 31 33 -10z m2447 -5 c0 -16
-54 -99 -67 -105 -21 -8 -15 18 17 68 27 43 50 60 50 37z m-2130 -105 c17 -10
11 -34 -11 -46 -19 -10 -21 -9 -17 8 3 11 -4 31 -17 47 l-23 29 -7 -23 c-4
-13 -21 -36 -38 -52 -34 -30 -58 -38 -36 -12 12 15 11 16 -11 9 -14 -4 -28
-10 -32 -14 -12 -10 44 -82 59 -77 21 8 15 -32 -6 -44 -27 -14 -34 -13 -28 4
4 10 -2 16 -16 18 -12 2 -21 10 -19 17 2 8 -5 23 -15 35 -10 11 -24 32 -31 45
-15 27 -15 27 50 61 20 11 57 38 83 60 l48 41 28 -50 c16 -27 33 -52 39 -56z
m2585 25 c3 -5 1 -10 -4 -10 -6 0 -11 5 -11 10 0 6 2 10 4 10 3 0 8 -4 11 -10z
m-879 -81 c8 -13 -13 -29 -40 -29 -18 0 -18 1 -1 20 21 23 31 25 41 9z m-1810
-45 c-3 -8 -10 -12 -16 -9 -7 4 -6 14 2 28 12 24 24 8 14 -19z m1424 -23 c0
-5 -9 -7 -20 -4 -11 3 -20 7 -20 9 0 2 9 4 20 4 11 0 20 -4 20 -9z m76 -18
c-10 -10 -19 5 -10 18 6 11 8 11 12 0 2 -7 1 -15 -2 -18z m294 23 c0 -3 -4 -8
-10 -11 -5 -3 -10 -1 -10 4 0 6 5 11 10 11 6 0 10 -2 10 -4z m-130 -36 c0 -5
-5 -10 -11 -10 -5 0 -7 5 -4 10 3 6 8 10 11 10 2 0 4 -4 4 -10z m122 -5 c3
-19 -46 -27 -77 -14 l-30 13 40 7 c50 8 66 7 67 -6z m-629 -10 c23 31 89 5 92
-37 1 -12 7 -23 13 -22 37 3 42 5 42 13 0 5 -6 8 -12 7 -7 0 -13 3 -13 9 0 11
36 8 48 -5 18 -17 -3 -50 -32 -50 -15 0 -32 -5 -37 -10 -7 -7 -15 2 -24 30
-10 31 -17 39 -29 34 -9 -3 -25 -7 -36 -8 -14 -1 -20 -8 -20 -26 0 -14 -4 -25
-10 -25 -5 0 -10 7 -10 15 0 8 -15 21 -32 29 -37 16 -43 31 -14 31 10 0 22 8
26 18 6 16 7 16 21 -2 14 -19 14 -19 27 -1z m285 -11 c12 -8 27 -12 32 -9 6 3
10 1 10 -6 0 -7 9 -9 22 -6 22 6 48 -7 48 -25 0 -6 -9 -8 -19 -5 -23 6 -86
-57 -78 -78 5 -12 69 -29 93 -24 5 1 16 1 24 0 13 -1 13 -2 0 -11 -8 -5 -25
-7 -38 -3 -12 3 -29 0 -37 -7 -13 -11 -23 -10 -55 0 -49 16 -97 0 -111 -38 -9
-23 -11 -24 -28 -8 -24 22 -31 20 -31 -9 0 -14 -4 -25 -10 -25 -5 0 -10 3 -10
8 0 4 -13 22 -29 40 l-30 32 40 0 c21 0 39 -4 39 -10 0 -18 25 -11 38 11 12
18 11 21 -7 26 -12 3 -21 11 -21 19 0 24 21 26 44 5 12 -11 36 -23 53 -27 38
-7 55 13 18 22 -41 10 -32 34 12 27 32 -5 36 -4 30 12 -6 13 -3 16 10 11 10
-4 -1 11 -24 32 -33 29 -40 41 -31 50 15 15 19 15 46 -4z m-708 -14 c0 -11 -7
-20 -15 -20 -8 0 -15 9 -15 20 0 11 7 20 15 20 8 0 15 -9 15 -20z m210 5 c0
-8 -3 -15 -7 -15 -24 -1 -35 -18 -24 -39 10 -17 9 -21 -5 -21 -9 0 -22 7 -28
15 -6 8 -30 17 -53 19 -42 3 -73 19 -73 37 0 14 22 11 40 -6 20 -18 90 -9 90
11 0 9 11 14 30 14 20 0 30 -5 30 -15z m977 -7 c-3 -8 -6 -5 -6 6 -1 11 2 17
5 13 3 -3 4 -12 1 -19z m-556 -1 c-1 -12 -15 -9 -19 4 -3 6 1 10 8 8 6 -3 11
-8 11 -12z m439 -7 c0 -5 -4 -10 -10 -10 -5 0 -10 5 -10 10 0 6 5 10 10 10 6
0 10 -4 10 -10z m-1175 -31 c-10 -15 -25 -10 -19 6 4 8 10 12 15 9 5 -3 7 -10
4 -15z m1115 -9 c-19 -12 -56 -9 -53 5 1 6 12 13 25 16 29 7 49 -8 28 -21z
m-727 -2 c12 -6 23 -5 33 3 11 9 17 9 29 -1 25 -21 7 -30 -59 -30 -69 0 -114
21 -86 39 15 10 51 5 83 -11z m182 12 c3 -6 -1 -13 -10 -16 -19 -8 -30 0 -20
15 8 14 22 14 30 1z m-648 -6 c-3 -3 -12 -4 -19 -1 -8 3 -5 6 6 6 11 1 17 -2
13 -5z m1233 -4 c0 -5 -2 -10 -4 -10 -3 0 -8 5 -11 10 -3 6 -1 10 4 10 6 0 11
-4 11 -10z m-1030 -9 c0 -6 -4 -13 -10 -16 -5 -3 -10 -15 -10 -26 0 -11 -7
-19 -16 -19 -11 0 -13 6 -9 19 4 13 0 24 -12 31 -16 10 -16 11 4 7 13 -3 26
-1 29 4 7 12 24 12 24 0z m-460 -43 c0 -14 -30 -48 -42 -48 -14 0 -9 38 8 54
16 17 34 13 34 -6z m895 -8 c-3 -5 -10 -10 -16 -10 -5 0 -9 5 -9 10 0 6 7 10
16 10 8 0 12 -4 9 -10z m547 -14 c9 -13 13 -28 8 -35 -5 -9 -12 -3 -24 19 -18
38 -19 40 -8 40 4 0 14 -11 24 -24z m-1052 4 c0 -5 -9 -10 -21 -10 -11 0 -17
5 -14 10 3 6 13 10 21 10 8 0 14 -4 14 -10z m270 -16 c0 -10 -8 -14 -22 -12
-27 4 -35 25 -11 30 23 6 33 0 33 -18z m-80 6 c12 -7 8 -16 -24 -45 -42 -38
-80 -53 -90 -36 -4 6 0 11 9 11 9 0 22 13 27 28 6 16 21 33 32 39 28 14 29 14
46 3z m140 0 c0 -5 8 -10 18 -11 12 0 10 -3 -7 -10 -31 -12 -62 -3 -54 17 6
16 43 20 43 4z m625 -10 c-20 -22 -31 -20 -22 5 4 8 14 15 23 15 16 0 16 -2
-1 -20z m-485 -26 c0 -16 -16 -19 -25 -4 -8 13 4 32 16 25 5 -4 9 -13 9 -21z
m405 -14 c11 -18 -16 -40 -48 -40 -16 0 -47 -5 -68 -12 -43 -12 -53 -9 -43 15
4 10 23 18 52 22 26 3 54 10 62 15 21 12 38 12 45 0z m-1140 -9 c7 -13 -26
-79 -44 -86 -26 -10 -30 10 -11 53 18 39 42 54 55 33z m552 -21 c-3 -12 1 -23
10 -29 11 -6 12 -10 4 -15 -24 -15 -55 36 -34 57 13 14 25 6 20 -13z m123 5
c0 -20 -26 -25 -54 -12 -36 17 -32 22 14 23 26 1 40 -3 40 -11z m283 -15 c-3
-11 -9 -23 -14 -26 -10 -6 -12 29 -2 39 13 13 21 7 16 -13z m-188 0 c3 -5 -1
-10 -10 -10 -9 0 -13 5 -10 10 3 6 8 10 10 10 2 0 7 -4 10 -10z m-36 -42 c-17
-34 -19 -34 -19 -5 0 18 5 27 15 27 13 0 14 -4 4 -22z m-605 -4 c4 -9 4 -19 1
-22 -6 -6 -35 18 -35 29 0 16 28 10 34 -7z"/>
<path d="M1910 3386 c0 -8 4 -17 9 -20 5 -4 7 3 4 14 -6 23 -13 26 -13 6z"/>
<path d="M1985 3249 c-6 -8 -17 -27 -25 -44 -8 -16 -17 -32 -20 -35 -3 -3 -16
-25 -29 -50 -13 -25 -38 -70 -54 -100 -17 -30 -52 -98 -79 -150 -27 -52 -54
-99 -59 -104 -5 -6 -9 -18 -9 -29 0 -13 5 -17 19 -12 10 3 35 6 55 7 40 1 49
24 21 52 -14 14 -14 18 1 41 11 17 24 25 38 23 14 -2 21 2 21 14 0 29 13 31
30 4 25 -37 84 -37 119 1 22 23 26 25 32 10 7 -19 -3 -53 -13 -44 -3 4 -15 0
-27 -8 -11 -8 -31 -15 -43 -15 -13 0 -23 -4 -23 -9 0 -5 -12 -11 -27 -13 -14
-2 -28 -8 -30 -15 -6 -16 35 -36 55 -28 9 4 34 9 55 10 32 3 36 1 26 -11 -9
-11 -7 -14 10 -14 11 0 21 5 21 10 0 6 12 23 26 37 l26 26 -7 -24 c-4 -13 -11
-29 -16 -35 -7 -8 6 -12 43 -13 28 0 60 -3 70 -7 34 -10 38 6 13 53 -14 25
-25 50 -25 55 0 11 -85 197 -100 218 -6 8 -13 23 -16 33 -9 25 -50 22 -57 -5
-6 -20 -8 -21 -24 -6 -10 8 -23 14 -29 11 -14 -5 -26 35 -13 43 5 3 9 12 9 20
0 9 7 23 16 31 13 13 20 14 35 5 16 -10 19 -9 19 6 0 10 -4 22 -9 28 -5 5 -11
18 -13 28 -2 16 -5 17 -13 5z m62 -196 c-11 -10 -26 8 -20 23 5 15 7 14 15 -1
6 -9 7 -19 5 -22z m-5 -43 l23 -19 -65 4 c-39 3 -55 2 -40 -3 14 -4 26 -15 28
-23 2 -12 -9 -18 -45 -22 -26 -3 -56 -9 -67 -13 -14 -5 -17 -3 -14 12 2 11 13
20 26 22 12 2 22 9 21 15 -4 37 5 43 73 45 23 0 46 -6 60 -18z m-15 -56 c-3
-3 -12 -4 -19 -1 -8 3 -5 6 6 6 11 1 17 -2 13 -5z"/>
<path d="M1595 3220 c-3 -5 -2 -10 4 -10 5 0 13 5 16 10 3 6 2 10 -4 10 -5 0
-13 -4 -16 -10z"/>
<path d="M1566 2994 c-8 -20 0 -32 14 -18 5 5 5 15 1 22 -6 11 -10 10 -15 -4z"/>
<path d="M1510 2985 c0 -8 5 -15 10 -15 6 0 10 7 10 15 0 8 -4 15 -10 15 -5 0
-10 -7 -10 -15z"/>
<path d="M2353 2993 c9 -2 25 -2 35 0 9 3 1 5 -18 5 -19 0 -27 -2 -17 -5z"/>
<path d="M2390 2956 c0 -9 30 -14 35 -6 4 6 -3 10 -14 10 -12 0 -21 -2 -21 -4z"/>
<path d="M1506 2905 c4 -8 7 -15 9 -15 2 0 5 7 9 15 3 9 0 15 -9 15 -9 0 -12
-6 -9 -15z"/>
<path d="M2348 2833 c7 -3 16 -2 19 1 4 3 -2 6 -13 5 -11 0 -14 -3 -6 -6z"/>
<path d="M2111 2614 c0 -11 3 -14 6 -6 3 7 2 16 -1 19 -3 4 -6 -2 -5 -13z"/>
<path d="M1891 2574 c0 -11 3 -14 6 -6 3 7 2 16 -1 19 -3 4 -6 -2 -5 -13z"/>
<path d="M1700 2560 c0 -5 7 -10 16 -10 8 0 12 5 9 10 -3 6 -10 10 -16 10 -5
0 -9 -4 -9 -10z"/>
<path d="M1850 2540 c0 -10 -3 -25 -6 -34 -5 -14 3 -16 55 -16 l61 0 -12 25
c-10 22 -13 23 -20 10 -12 -21 -38 -19 -38 4 0 10 -9 21 -20 24 -15 4 -20 0
-20 -13z"/>
<path d="M2083 2425 c-1 -19 3 -35 8 -35 5 0 9 16 9 35 0 19 -4 35 -8 35 -4 0
-8 -16 -9 -35z"/>
<path d="M2190 2449 c0 -5 5 -7 10 -4 6 3 10 8 10 11 0 2 -4 4 -10 4 -5 0 -10
-5 -10 -11z"/>
<path d="M1690 2414 c0 -3 7 -12 15 -20 16 -17 18 -14 9 10 -6 15 -24 23 -24
10z"/>
<path d="M1765 2410 c3 -5 10 -10 16 -10 5 0 9 5 9 10 0 6 -7 10 -16 10 -8 0
-12 -4 -9 -10z"/>
<path d="M1805 2410 c4 -6 11 -8 16 -5 14 9 11 15 -7 15 -8 0 -12 -5 -9 -10z"/>
<path d="M1995 2400 c-3 -5 -1 -10 4 -10 6 0 11 5 11 10 0 6 -2 10 -4 10 -3 0
-8 -4 -11 -10z"/>
<path d="M2130 2400 c0 -5 5 -10 11 -10 5 0 7 5 4 10 -3 6 -8 10 -11 10 -2 0
-4 -4 -4 -10z"/>
<path d="M1788 2353 c6 -2 18 -2 25 0 6 3 1 5 -13 5 -14 0 -19 -2 -12 -5z"/>
<path d="M1977 2353 c-11 -10 -8 -20 6 -26 7 -3 19 4 25 14 10 16 9 19 -6 19
-10 0 -22 -3 -25 -7z"/>
<path d="M1706 2313 c8 -43 14 -55 14 -27 0 10 3 29 6 42 5 16 2 22 -10 22
-14 0 -16 -6 -10 -37z"/>
<path d="M1887 2344 c-8 -8 1 -24 13 -24 4 0 10 7 14 15 5 15 -14 21 -27 9z"/>
<path d="M2032 2295 c0 -16 2 -22 5 -12 2 9 2 23 0 30 -3 6 -5 -1 -5 -18z"/>
<path d="M1898 2273 c7 -3 16 -2 19 1 4 3 -2 6 -13 5 -11 0 -14 -3 -6 -6z"/>
<path d="M1784 2194 c3 -9 6 -18 6 -20 0 -2 4 -4 9 -4 5 0 7 9 4 20 -3 11 -10
20 -15 20 -6 0 -7 -7 -4 -16z"/>
<path d="M1607 2184 c-13 -13 -7 -24 14 -24 11 0 19 5 17 12 -5 14 -22 21 -31
12z"/>
<path d="M1865 2180 c3 -5 8 -10 11 -10 2 0 4 5 4 10 0 6 -5 10 -11 10 -5 0
-7 -4 -4 -10z"/>
<path d="M1697 2169 c8 -8 16 -8 30 0 16 9 14 10 -11 11 -22 0 -27 -3 -19 -11z"/>
<path d="M2737 3394 c-4 -4 -7 -16 -7 -26 0 -16 3 -16 20 -6 20 13 22 29 4 35
-6 2 -13 0 -17 -3z"/>
<path d="M2693 3305 c-8 -22 6 -33 17 -15 13 20 12 30 0 30 -6 0 -13 -7 -17
-15z"/>
<path d="M3300 2841 c0 -21 20 -61 30 -61 19 0 7 64 -12 68 -10 2 -18 -1 -18
-7z"/>
<path d="M3080 2580 c-13 -8 -12 -10 3 -10 9 0 17 5 17 10 0 12 -1 12 -20 0z"/>
<path d="M3121 2571 c-10 -18 -9 -21 9 -21 22 0 25 7 11 29 -7 11 -11 9 -20
-8z"/>
<path d="M3190 2580 c-12 -8 -11 -10 8 -10 12 0 22 5 22 10 0 13 -11 13 -30 0z"/>
<path d="M3320 2520 c-9 -6 -10 -10 -3 -10 6 0 15 5 18 10 8 12 4 12 -15 0z"/>
<path d="M3140 2510 c0 -5 5 -10 10 -10 6 0 10 5 10 10 0 6 -4 10 -10 10 -5 0
-10 -4 -10 -10z"/>
<path d="M3200 2500 c0 -5 7 -10 16 -10 8 0 12 5 9 10 -3 6 -10 10 -16 10 -5
0 -9 -4 -9 -10z"/>
<path d="M3144 2479 c-3 -6 -1 -16 5 -22 8 -8 11 -5 11 11 0 24 -5 28 -16 11z"/>
<path d="M3042 2438 c-7 -7 -12 -19 -12 -27 0 -11 5 -8 16 7 18 25 15 39 -4
20z"/>
<path d="M3564 2385 c8 -8 21 -15 28 -15 8 1 6 6 -6 15 -26 20 -42 19 -22 0z"/>
<path d="M3640 2380 c0 -5 7 -10 16 -10 8 0 12 5 9 10 -3 6 -10 10 -16 10 -5
0 -9 -4 -9 -10z"/>
<path d="M3518 2353 c7 -3 16 -2 19 1 4 3 -2 6 -13 5 -11 0 -14 -3 -6 -6z"/>
<path d="M3640 2331 c0 -9 24 -21 42 -21 6 0 6 6 -2 15 -14 16 -40 20 -40 6z"/>
<path d="M3075 2300 c10 -11 22 -17 27 -14 5 3 1 12 -9 20 -27 20 -39 17 -18
-6z"/>
<path d="M2964 2296 c-24 -11 -49 -45 -39 -54 3 -4 20 8 37 26 33 37 34 43 2
28z"/>
<path d="M2956 2216 c-20 -19 -42 -36 -49 -39 -7 -2 -8 -5 -1 -10 6 -3 30 12
53 34 52 50 49 62 -3 15z"/>
<path d="M2655 2220 c3 -5 8 -10 11 -10 2 0 4 5 4 10 0 6 -5 10 -11 10 -5 0
-7 -4 -4 -10z"/>
<path d="M2985 2190 c-23 -24 -26 -33 -16 -43 10 -9 16 -7 31 13 21 28 32 60
21 60 -4 0 -20 -14 -36 -30z"/>
<path d="M2775 2170 c-3 -11 -11 -20 -16 -20 -17 0 -9 -29 10 -32 30 -5 9 -48
-24 -48 -14 0 -25 -4 -25 -10 0 -5 14 -10 30 -10 17 0 30 4 30 9 0 5 9 11 19
14 15 3 19 13 19 36 -1 17 -6 31 -13 31 -8 0 -10 9 -7 25 5 30 -14 34 -23 5z"/>
<path d="M3570 2174 c0 -8 5 -12 10 -9 6 4 8 11 5 16 -9 14 -15 11 -15 -7z"/>
<path d="M3090 2170 c0 -5 4 -10 9 -10 6 0 13 5 16 10 3 6 -1 10 -9 10 -9 0
-16 -4 -16 -10z"/>
<path d="M3230 2170 c0 -5 7 -10 16 -10 8 0 12 5 9 10 -3 6 -10 10 -16 10 -5
0 -9 -4 -9 -10z"/>
<path d="M3628 2173 c7 -3 16 -2 19 1 4 3 -2 6 -13 5 -11 0 -14 -3 -6 -6z"/>
<path d="M2910 2111 c0 -12 6 -21 15 -21 8 0 15 4 15 9 0 5 -7 14 -15 21 -13
10 -15 9 -15 -9z"/>
<path d="M2710 1971 c0 -10 24 -21 48 -21 13 0 12 3 -4 15 -21 16 -44 19 -44
6z"/>
<path d="M3398 1833 c7 -3 16 -2 19 1 4 3 -2 6 -13 5 -11 0 -14 -3 -6 -6z"/>
<path d="M3515 1659 c-11 -16 1 -22 30 -15 14 4 23 11 20 16 -8 13 -42 13 -50
-1z"/>
<path d="M3558 1587 c-15 -12 -15 -15 3 -37 12 -15 17 -18 13 -7 -3 9 -1 17 5
17 6 0 11 9 11 20 0 23 -8 25 -32 7z"/>
<path d="M3460 1396 c0 -34 23 -50 50 -36 11 6 18 15 15 21 -4 5 -11 7 -16 3
-6 -3 -13 3 -16 15 -7 29 -33 27 -33 -3z"/>
<path d="M940 2600 c-13 -8 -12 -10 3 -10 9 0 17 5 17 10 0 12 -1 12 -20 0z"/>
<path d="M1011 2559 c-13 -11 -20 -23 -16 -27 4 -4 10 -1 12 6 3 6 11 12 19
12 8 0 14 7 14 15 0 19 0 19 -29 -6z"/>
<path d="M935 2470 c3 -5 13 -10 21 -10 8 0 12 5 9 10 -3 6 -13 10 -21 10 -8
0 -12 -4 -9 -10z"/>
<path d="M986 2381 c-4 -5 -2 -12 3 -15 5 -4 12 -2 15 3 4 5 2 12 -3 15 -5 4
-12 2 -15 -3z"/>
<path d="M1050 2378 c0 -5 9 -9 20 -9 11 -1 25 -2 32 -3 6 -1 13 4 15 11 3 8
-8 11 -31 10 -20 -1 -36 -5 -36 -9z"/>
<path d="M596 2361 c-4 -7 -5 -15 -2 -18 9 -9 19 4 14 18 -4 11 -6 11 -12 0z"/>
<path d="M1150 2345 c0 -8 2 -15 4 -15 2 0 6 7 10 15 3 8 1 15 -4 15 -6 0 -10
-7 -10 -15z"/>
<path d="M1400 2345 c0 -9 5 -15 11 -13 6 2 11 8 11 13 0 5 -5 11 -11 13 -6 2
-11 -4 -11 -13z"/>
<path d="M976 2333 c5 -5 12 -12 16 -18 4 -6 8 -2 8 8 0 9 -7 17 -17 17 -9 0
-12 -3 -7 -7z"/>
<path d="M1080 2321 c0 -11 5 -23 10 -26 6 -4 10 5 10 19 0 14 -4 26 -10 26
-5 0 -10 -9 -10 -19z"/>
<path d="M698 2313 c7 -3 16 -2 19 1 4 3 -2 6 -13 5 -11 0 -14 -3 -6 -6z"/>
<path d="M590 2300 c0 -5 5 -10 10 -10 6 0 10 5 10 10 0 6 -4 10 -10 10 -5 0
-10 -4 -10 -10z"/>
<path d="M795 2289 c-11 -16 -1 -19 13 -3 7 8 8 14 3 14 -5 0 -13 -5 -16 -11z"/>
<path d="M490 2270 c0 -11 3 -20 8 -21 44 -6 92 -6 92 0 0 9 -41 33 -47 27 -3
-2 -16 -1 -29 4 -20 8 -24 6 -24 -10z"/>
<path d="M758 2253 c7 -3 16 -2 19 1 4 3 -2 6 -13 5 -11 0 -14 -3 -6 -6z"/>
<path d="M540 2200 c0 -5 5 -10 10 -10 6 0 10 5 10 10 0 6 -4 10 -10 10 -5 0
-10 -4 -10 -10z"/>
<path d="M873 2193 c9 -2 23 -2 30 0 6 3 -1 5 -18 5 -16 0 -22 -2 -12 -5z"/>
<path d="M930 2190 c0 -5 5 -10 10 -10 6 0 10 5 10 10 0 6 -4 10 -10 10 -5 0
-10 -4 -10 -10z"/>
<path d="M782 2168 c-7 -7 -12 -15 -12 -20 0 -13 64 3 80 20 14 14 13 15 -3 2
-14 -10 -21 -10 -29 -2 -15 15 -21 15 -36 0z"/>
<path d="M675 2160 c-16 -7 -11 -9 20 -9 29 -1 36 2 25 9 -17 11 -19 11 -45 0z"/>
<path d="M487 2144 c-8 -8 1 -24 14 -24 5 0 9 7 9 15 0 15 -12 20 -23 9z"/>
<path d="M513 2113 c-15 -5 -17 -23 -4 -23 5 0 11 7 15 15 3 8 4 15 3 14 -1 0
-8 -3 -14 -6z"/>
<path d="M905 2091 c-10 -17 12 -21 25 -6 10 12 10 15 -3 15 -9 0 -18 -4 -22
-9z"/>
<path d="M405 2070 c3 -5 8 -10 11 -10 2 0 4 5 4 10 0 6 -5 10 -11 10 -5 0 -7
-4 -4 -10z"/>
<path d="M470 2039 c0 -5 5 -7 10 -4 6 3 10 8 10 11 0 2 -4 4 -10 4 -5 0 -10
-5 -10 -11z"/>
<path d="M338 1993 c6 -2 18 -2 25 0 6 3 1 5 -13 5 -14 0 -19 -2 -12 -5z"/>
<path d="M1178 1973 c7 -3 16 -2 19 1 4 3 -2 6 -13 5 -11 0 -14 -3 -6 -6z"/>
<path d="M370 1960 c-24 -8 -23 -8 8 -9 20 -1 31 3 27 9 -3 6 -7 10 -8 9 -1
-1 -13 -5 -27 -9z"/>
<path d="M318 1913 c6 -2 18 -2 25 0 6 3 1 5 -13 5 -14 0 -19 -2 -12 -5z"/>
<path d="M285 1871 c-10 -18 15 -22 37 -7 l22 16 -26 0 c-15 0 -29 -4 -33 -9z"/>
<path d="M745 1680 c-3 -5 -1 -10 4 -10 6 0 11 5 11 10 0 6 -2 10 -4 10 -3 0
-8 -4 -11 -10z"/>
<path d="M3225 1680 c-8 -13 15 -24 27 -12 6 6 4 11 -6 15 -8 3 -18 2 -21 -3z"/>
<path d="M1505 1820 c-3 -5 -1 -10 4 -10 6 0 11 5 11 10 0 6 -2 10 -4 10 -3 0
-8 -4 -11 -10z"/>
<path d="M2185 1879 c-4 -6 2 -13 13 -16 29 -7 37 -63 11 -82 -10 -7 -19 -20
-19 -27 0 -17 -1 -17 38 -3 25 8 38 7 63 -5 27 -13 34 -14 51 -2 32 22 47 10
41 -31 -5 -28 -3 -35 8 -31 15 5 23 55 9 63 -4 3 -6 14 -3 25 5 20 -19 54 -31
43 -3 -4 -6 -17 -6 -29 0 -20 -4 -23 -27 -20 -69 11 -86 21 -89 54 -3 27 0 34
22 42 14 6 22 14 19 20 -8 13 -92 13 -100 -1z"/>
<path d="M2330 1845 c-1 -5 -2 -18 -1 -27 3 -25 -27 -23 -32 2 -4 17 -4 16 -3
-2 1 -17 8 -24 29 -26 17 -2 27 1 26 10 -1 19 -17 55 -19 43z"/>
<path d="M2090 1819 c9 -15 8 -24 0 -34 -9 -11 -9 -18 3 -30 8 -8 18 -34 22
-57 8 -46 30 -70 57 -62 10 3 22 -4 31 -17 15 -21 15 -21 19 7 3 25 7 29 30
26 21 -3 27 0 22 11 -11 29 18 30 41 1 25 -32 81 -40 122 -19 20 10 21 14 9
24 -8 7 -17 8 -20 3 -10 -16 -76 -5 -100 17 -24 23 -51 27 -62 10 -4 -6 -19
-9 -36 -5 -20 4 -30 1 -34 -9 -10 -26 -43 -17 -60 17 -15 28 -15 33 -1 43 10
7 13 16 7 25 -5 8 -6 26 -3 40 6 22 5 24 -10 11 -14 -11 -18 -11 -23 3 -3 9
-10 16 -15 16 -6 0 -5 -9 1 -21z"/>
<path d="M2174 1824 c3 -8 6 -18 6 -20 0 -2 5 -4 10 -4 16 0 11 27 -6 34 -12
5 -15 2 -10 -10z"/>
<path d="M2025 1779 c-10 -15 0 -21 27 -17 l23 3 -22 13 c-15 8 -24 9 -28 1z"/>
<path d="M2437 1770 c-6 -22 9 -26 33 -10 13 9 13 11 0 20 -22 14 -27 12 -33
-10z"/>
<path d="M2011 1676 c-14 -17 -7 -36 14 -36 22 0 29 20 13 36 -13 13 -16 13
-27 0z"/>
<path d="M1830 1611 c0 -6 4 -13 10 -16 6 -3 7 1 4 9 -7 18 -14 21 -14 7z"/>
<path d="M2470 1616 c0 -4 5 -16 10 -26 7 -13 7 -21 0 -25 -5 -3 -10 -13 -10
-21 0 -11 4 -12 19 -4 27 14 31 13 31 -9 0 -28 20 -37 27 -12 3 12 13 21 25
21 14 0 18 5 14 16 -3 9 -6 21 -6 27 0 7 -5 6 -10 -3 -9 -13 -12 -13 -25 4 -7
10 -19 15 -25 11 -6 -4 -20 1 -31 11 -10 9 -19 14 -19 10z"/>
<path d="M2325 1579 c-4 -11 -20 -15 -63 -14 -31 1 -67 -2 -80 -7 -43 -15 -12
-26 58 -21 46 3 75 1 84 -6 11 -9 16 -9 21 -1 4 6 13 9 20 6 16 -6 30 28 20
44 -5 8 -11 7 -22 -1 -12 -10 -16 -10 -23 1 -8 12 -10 12 -15 -1z"/>
<path d="M2413 1559 c0 -16 1 -29 3 -29 1 0 9 3 18 6 21 8 20 27 -2 41 -17 10
-19 8 -19 -18z"/>
<path d="M2026 1562 c-3 -6 -1 -14 5 -17 15 -10 25 3 12 16 -7 7 -13 7 -17 1z"/>
<path d="M1771 1504 c0 -11 3 -14 6 -6 3 7 2 16 -1 19 -3 4 -6 -2 -5 -13z"/>
<path d="M1790 1465 c0 -18 -50 -21 -68 -3 -9 9 -13 7 -18 -5 -8 -23 13 -47
42 -47 12 0 26 -4 29 -10 3 -5 15 -10 26 -10 27 0 24 20 -3 21 -16 1 -12 4 12
9 20 5 42 4 53 -2 12 -6 23 -6 32 2 9 8 17 7 28 -5 9 -8 18 -11 21 -6 12 18
61 -4 65 -30 3 -22 5 -21 16 11 11 32 15 35 51 35 21 1 44 -2 49 -6 6 -3 41
-3 80 1 38 4 74 6 81 3 7 -2 15 0 19 6 4 7 -5 11 -24 11 -18 0 -34 7 -41 18
-10 16 -10 16 -20 0 -13 -22 -68 -24 -76 -3 -5 12 -9 12 -27 1 -28 -18 -130
-14 -153 5 -13 11 -18 11 -21 1 -3 -6 -9 -9 -14 -6 -6 3 -15 1 -22 -4 -19 -16
-78 -9 -92 11 -15 21 -25 22 -25 2z"/>
<path d="M1650 1385 c0 -8 7 -15 16 -15 14 0 14 3 4 15 -7 8 -14 15 -16 15 -2
0 -4 -7 -4 -15z"/>
<path d="M1588 1347 c-3 -23 -3 -45 -1 -49 2 -5 32 -8 66 -8 38 -1 69 -6 81
-15 17 -13 21 -13 33 5 10 14 21 18 41 14 24 -5 27 -2 28 21 2 20 -2 25 -13
21 -53 -21 -63 -19 -64 10 l-1 29 -7 -29 c-6 -30 -31 -49 -31 -24 0 10 -2 10
-10 -2 -8 -12 -13 -12 -44 2 -32 16 -35 16 -41 0 -6 -14 -8 -13 -16 7 -6 14
-8 30 -5 38 3 7 1 15 -3 18 -5 3 -11 -14 -13 -38z"/>
<path d="M2423 1383 c-15 -5 -6 -61 11 -81 12 -13 46 -7 46 8 0 4 -10 10 -21
13 -17 5 -20 11 -15 31 6 26 -1 36 -21 29z"/>
<path d="M1708 1373 c7 -3 16 -2 19 1 4 3 -2 6 -13 5 -11 0 -14 -3 -6 -6z"/>
<path d="M2229 1355 c-2 -18 -10 -30 -19 -31 -8 -1 -26 -6 -40 -11 -19 -8 -28
-8 -39 3 -12 11 -16 10 -27 -4 -12 -15 -14 -13 -20 18 -7 33 -8 33 -14 10 -8
-33 -38 -38 -48 -9 -6 15 -11 19 -16 10 -6 -9 -11 -9 -22 0 -11 9 -14 8 -14
-5 0 -23 -21 -20 -27 4 -3 11 -10 20 -15 20 -6 0 -8 -7 -4 -15 3 -8 0 -15 -7
-15 -16 0 -67 -23 -67 -30 0 -3 9 -11 21 -18 18 -11 23 -11 35 5 7 10 14 15
14 11 0 -4 12 -3 26 2 18 7 38 7 63 -1 20 -6 48 -14 63 -19 17 -5 28 -4 31 3
2 6 14 7 30 3 15 -3 25 -11 22 -16 -3 -5 0 -18 7 -30 10 -16 10 -24 0 -41 -7
-12 -10 -24 -7 -27 4 -4 11 1 16 11 12 21 27 22 51 0 16 -14 18 -15 18 0 0 9
-5 19 -11 23 -6 3 -8 17 -5 30 6 24 -7 33 -19 14 -3 -5 -10 -10 -16 -10 -13 0
-11 34 3 48 15 15 100 16 114 2 17 -17 46 -1 35 19 -7 11 -23 16 -53 16 -39 0
-43 2 -49 30 l-6 30 -4 -30z"/>
<path d="M2623 1374 c-15 -7 -5 -34 12 -34 14 0 27 25 18 34 -7 7 -13 7 -30 0z"/>
<path d="M1871 1354 c0 -11 3 -14 6 -6 3 7 2 16 -1 19 -3 4 -6 -2 -5 -13z"/>
<path d="M2378 1313 c6 -2 18 -2 25 0 6 3 1 5 -13 5 -14 0 -19 -2 -12 -5z"/>
<path d="M2632 1260 c0 -14 2 -19 5 -12 2 6 2 18 0 25 -3 6 -5 1 -5 -13z"/>
<path d="M1470 1228 c0 -29 3 -38 9 -29 10 16 31 6 31 -15 0 -8 7 -14 15 -14
8 0 15 6 15 14 0 7 11 21 25 30 27 18 34 46 12 46 -8 0 -19 -11 -25 -25 -15
-33 -28 -32 -47 5 -22 42 -35 37 -35 -12z"/>
<path d="M1643 1263 c-19 -7 -16 -53 3 -53 10 0 14 6 11 14 -11 27 32 30 59 5
17 -16 24 -18 24 -8 0 8 -4 19 -8 25 -8 12 -70 24 -89 17z"/>
<path d="M1793 1255 c-29 -20 -29 -49 -1 -69 25 -17 63 -22 53 -6 -3 5 -12 7
-20 3 -9 -3 -15 1 -15 10 0 9 -8 17 -17 19 -14 3 -11 7 12 19 17 9 38 14 49
11 12 -2 17 1 14 10 -7 19 -50 21 -75 3z"/>
<path d="M1926 1249 c-14 -11 -26 -24 -26 -28 0 -17 38 -51 57 -51 24 0 66 29
43 30 -9 0 -21 -5 -28 -12 -10 -10 -17 -8 -32 8 -21 20 -21 20 -1 38 15 14 24
15 40 7 13 -7 22 -8 26 -1 3 6 -6 15 -20 20 -33 13 -28 14 -59 -11z"/>
<path d="M2288 1264 c-4 -3 -2 -14 4 -24 9 -14 9 -22 -2 -34 -17 -22 -7 -30
18 -15 18 11 24 10 42 -6 26 -24 38 -13 12 13 -13 13 -17 24 -11 33 5 8 9 20
9 27 0 10 -5 10 -22 -2 -19 -14 -23 -14 -32 0 -7 8 -15 12 -18 8z"/>
<path d="M2390 1265 c0 -17 48 -92 55 -87 11 7 45 66 45 76 0 15 -19 4 -25
-14 -8 -26 -45 -27 -45 -1 0 10 -7 21 -15 25 -8 3 -15 4 -15 1z"/>
<path d="M2052 1218 c3 -39 6 -43 31 -46 15 -2 27 2 27 8 0 6 -4 9 -9 5 -15
-9 -42 25 -36 45 3 10 1 21 -5 25 -8 5 -10 -7 -8 -37z"/>
<path d="M2507 1252 c7 -4 11 -21 10 -36 -1 -16 3 -30 8 -32 6 -3 11 13 11 36
1 34 -1 40 -20 40 -14 0 -17 -3 -9 -8z"/>
<path d="M2720 1196 c0 -9 5 -16 10 -16 6 0 10 4 10 9 0 6 -4 13 -10 16 -5 3
-10 -1 -10 -9z"/>
<path d="M1690 1185 l-25 -14 26 -1 c15 0 29 7 33 15 7 18 -2 18 -34 0z"/>
<path d="M3337 1574 c-15 -15 -6 -24 24 -24 20 0 29 4 27 13 -5 14 -40 21 -51
11z"/>
<path d="M2838 1613 c7 -3 16 -2 19 1 4 3 -2 6 -13 5 -11 0 -14 -3 -6 -6z"/>
<path d="M2743 1563 c-7 -3 -13 -14 -13 -24 0 -14 4 -18 13 -12 6 4 23 6 36 4
15 -2 22 2 19 10 -5 15 -38 28 -55 22z"/>
<path d="M820 1605 c-10 -12 -10 -15 4 -15 9 0 16 7 16 15 0 8 -2 15 -4 15 -2
0 -9 -7 -16 -15z"/>
<path d="M1028 1613 c7 -3 16 -2 19 1 4 3 -2 6 -13 5 -11 0 -14 -3 -6 -6z"/>
<path d="M920 1600 c-13 -8 -13 -10 2 -10 9 0 20 5 23 10 8 13 -5 13 -25 0z"/>
<path d="M885 1531 c-10 -17 12 -21 25 -6 10 12 10 15 -3 15 -9 0 -18 -4 -22
-9z"/>
<path d="M3069 1126 c-9 -20 -8 -27 10 -45 28 -28 27 -44 -1 -36 -13 4 -27 11
-31 15 -8 7 -117 -91 -117 -105 0 -17 -50 -69 -98 -102 -29 -21 -58 -45 -63
-55 -5 -10 -18 -18 -28 -18 -10 0 -29 -8 -42 -19 -21 -17 -22 -22 -13 -62 11
-55 7 -109 -10 -109 -20 0 -48 69 -41 101 4 16 3 29 -2 29 -25 1 -153 -77
-167 -101 -16 -27 -16 -31 3 -74 21 -47 50 -63 90 -50 24 7 37 46 25 72 -6 15
-8 14 -12 -7 -2 -14 -7 -29 -12 -33 -10 -11 -49 31 -57 61 -7 29 12 51 29 34
18 -18 28 -15 28 8 0 32 26 23 44 -14 18 -39 21 -66 6 -66 -5 0 -10 -4 -10
-10 0 -19 36 -10 83 20 26 16 47 37 47 45 0 12 6 15 20 10 13 -4 33 2 55 15
44 27 47 67 9 117 -36 48 -25 62 19 23 27 -23 37 -40 37 -61 0 -16 3 -29 6
-29 4 0 29 20 55 45 26 25 53 45 59 45 22 0 8 26 -22 41 -19 9 -35 26 -39 42
-10 38 9 35 50 -7 37 -38 60 -38 91 2 28 35 25 53 -15 92 -36 35 -45 60 -22
60 20 0 75 -58 79 -83 3 -19 8 -16 33 23 17 25 42 59 58 75 30 33 35 55 12 55
-28 0 -70 27 -85 54 -17 33 -47 33 -61 2z m96 -105 c3 -5 1 -12 -5 -16 -5 -3
-10 1 -10 9 0 18 6 21 15 7z m-155 -98 c0 -8 5 -11 10 -8 13 8 40 -19 40 -39
0 -9 -6 -16 -13 -16 -19 0 -80 66 -73 79 9 14 36 2 36 -16z m-120 -104 c0 -23
-13 -25 -31 -3 -10 13 -10 17 1 24 18 11 30 3 30 -21z m34 -54 c3 -8 1 -15 -4
-15 -6 0 -10 7 -10 15 0 8 2 15 4 15 2 0 6 -7 10 -15z m-150 -40 c28 -26 36
-75 12 -75 -21 0 -69 67 -62 85 8 21 19 19 50 -10z"/>
<path d="M1470 604 c-31 -71 -25 -106 24 -137 50 -33 116 20 116 93 0 22 15
27 23 7 9 -23 -5 -71 -26 -95 -26 -28 -15 -39 38 -44 37 -3 40 -1 37 20 -1 15
2 22 10 19 7 -2 12 -11 10 -20 -5 -28 41 -48 116 -49 74 -2 98 8 112 46 6 18
9 16 25 -17 17 -37 19 -38 64 -35 42 3 48 6 64 41 15 30 17 43 8 69 -22 61
-82 77 -124 32 l-24 -26 -26 26 c-14 14 -34 26 -44 27 -45 1 -113 12 -175 29
-36 10 -69 16 -72 13 -3 -3 -20 3 -38 14 -18 11 -48 23 -66 26 -31 6 -34 5
-52 -39z m86 -17 c7 -18 -18 -90 -33 -95 -9 -2 -13 7 -13 27 0 58 31 105 46
68z m164 -52 c0 -8 -6 -15 -14 -15 -17 0 -28 14 -19 24 12 12 33 6 33 -9z m80
-39 c0 -65 -26 -89 -47 -43 -8 17 -6 28 9 50 26 36 38 34 38 -7z m241 7 c15
-41 8 -78 -16 -78 -16 0 -21 8 -23 39 -6 66 19 91 39 39z m-156 -2 c10 -32 -5
-71 -26 -71 -17 0 -19 6 -15 38 3 20 5 40 5 45 2 15 30 6 36 -12z"/>
<path d="M2325 600 c-33 -11 -68 -20 -78 -20 -32 0 -77 -30 -77 -50 0 -26 33
-54 71 -60 35 -6 41 -18 17 -34 -13 -8 -23 -8 -38 2 -29 18 -42 15 -38 -10 4
-28 34 -34 82 -18 68 22 62 100 -7 100 -30 0 -44 17 -28 33 9 9 16 8 31 -1 26
-16 40 -15 40 3 0 8 7 15 15 15 18 0 38 -70 29 -106 -7 -25 -6 -26 27 -19 64
14 102 34 95 51 -3 8 -6 21 -6 27 0 6 -13 -2 -30 -18 -22 -21 -30 -24 -30 -13
0 9 7 18 15 22 11 4 13 11 6 29 -6 16 -6 28 1 35 14 14 0 52 -20 51 -9 0 -44
-9 -77 -19z m85 -30 c0 -4 -9 -10 -20 -13 -19 -5 -28 12 -14 26 8 7 34 -3 34
-13z"/>
<path d="M1391 504 c0 -11 3 -14 6 -6 3 7 2 16 -1 19 -3 4 -6 -2 -5 -13z"/>
<path d="M758 1133 c7 -3 16 -2 19 1 4 3 -2 6 -13 5 -11 0 -14 -3 -6 -6z"/>
</g>
</svg>
